<svg xmlns="http://www.w3.org/2000/svg" width="30" height="30" viewBox="0 0 30 30">
    <g fill="none" fill-rule="nonzero">
        <rect width="30" height="30" fill="#6082BB" rx="5"/>
        <path fill="#FFF" d="M3.75 20.25L5.464 12H9.43c1.714.102 2.571.917 2.571 2.343a3.703 3.703 0 0 1-3.857 3.768H6.214l-.428 2.139H3.75zm7.5-2.25l1.73-8.25h2.054l-.432 2.139h1.946c1.73.102 2.378.916 2.162 1.935L17.953 18h-2.162l.757-3.769c.108-.509.108-.814-.649-.814h-1.622L13.304 18H11.25zm6.375 2.25L19.339 12h3.964c1.715.102 2.572.917 2.572 2.343a3.703 3.703 0 0 1-3.857 3.768h-1.929l-.428 2.139h-2.036z"/>
        <path fill="#6082BB" d="M21.5 13.5h1.3c.7 0 1.2.3 1.2.9-.1 1.7-.9 2-1.8 2.1H21l.5-3zm-14.25 0h1.3c.7 0 1.2.3 1.2.9-.1 1.7-.9 2-1.8 2.1h-1.2l.5-3z"/>
    </g>
</svg>
