<svg xmlns="http://www.w3.org/2000/svg" width="36" height="20" viewBox="0 0 36 20">
    <g fill="none" fill-rule="nonzero">
        <path fill="#FFF" d="M1.983 0h31.725c1.096 0 1.983 1.134 1.983 2.534v14.478c0 1.399-.887 2.533-1.983 2.533H1.983C.888 19.545 0 18.411 0 17.012V2.534C0 1.134.888 0 1.983 0z"/>
        <path fill="#092E20" d="M35.697 17.01c0 1.4-.887 2.534-1.982 2.534H1.983C.888 19.544 0 18.41 0 17.011V2.534C0 1.134.888 0 1.983 0h31.732c1.095 0 1.982 1.134 1.982 2.534V17.01z"/>
        <g fill="#FFF">
            <path d="M6.157 3.07h1.69v9.998c-.867.21-1.503.294-2.195.294-2.064 0-3.14-1.192-3.14-3.478 0-2.202 1.142-3.633 2.91-3.633.274 0 .483.028.735.112V3.07zm0 5.032a1.345 1.345 0 0 0-.57-.112c-.857 0-1.351.673-1.351 1.851 0 1.15.472 1.782 1.34 1.782.186 0 .34-.014.581-.056V8.102z"/>
            <path d="M10.537 6.405v5.007c0 1.725-.099 2.553-.395 3.269-.275.687-.637 1.121-1.383 1.598l-1.57-.954c.746-.449 1.109-.84 1.339-1.444.242-.617.318-1.333.318-3.212V6.405h1.69zM8.847 3.08h1.69v2.217h-1.69V3.08zm2.711 3.816c.747-.449 1.46-.645 2.24-.645.867 0 1.437.294 1.69.87.143.322.186.743.186 1.64v4.39c-.757.141-1.712.24-2.414.24-1.417 0-2.053-.632-2.053-2.035 0-1.515.845-2.216 2.92-2.44v-.477c0-.393-.154-.533-.582-.533-.626 0-1.328.224-1.987.66v-1.67zm2.646 3.437c-1.12.14-1.482.364-1.482.925 0 .421.208.618.67.618.252 0 .482-.029.811-.099v-1.444zM16.498 6.742c.999-.337 1.822-.491 2.656-.491.868 0 1.493.252 1.867.743.351.463.46.968.46 2.048v4.236h-1.69V9.126c0-.827-.22-1.136-.823-1.136-.23 0-.44.028-.78.154v5.134h-1.69V6.742zM22.139 14.456c.593.393 1.185.575 1.811.575 1.109 0 1.58-.575 1.58-1.95v-.041c-.329.21-.658.294-1.097.294-1.482 0-2.426-1.249-2.426-3.226 0-2.455 1.394-3.843 3.864-3.843.724 0 1.394.098 2.206.308L27.5 8.132c-.45-.113-.037-.016-.377-.058V8.3l.022.911.011 1.179c.011.294.011.589.022.883v.59c0 1.85-.12 2.72-.483 3.436-.527 1.052-1.438 1.57-2.733 1.57-.659 0-1.23-.125-1.822-.42v-1.992zm3.359-6.452h-.176a1.539 1.539 0 0 0-.977.309c-.406.294-.615.827-.615 1.585 0 1.08.418 1.697 1.164 1.697.23 0 .417-.056.637-.14v-.744c0-.252-.011-.533-.011-.827l-.01-.996-.012-.716v-.168zm5.204-1.781c1.69 0 2.722 1.36 2.722 3.562 0 2.259-1.076 3.675-2.788 3.675-1.69 0-2.734-1.36-2.734-3.548 0-2.273 1.076-3.689 2.8-3.689zm-.033 5.498c.648 0 1.032-.687 1.032-1.88 0-1.178-.374-1.88-1.021-1.88-.67 0-1.054.688-1.054 1.88 0 1.193.384 1.88 1.043 1.88z"/>
        </g>
    </g>
</svg>
