<?xml version="1.0" encoding="UTF-8"?>
<svg width="29px" height="34px" viewBox="0 0 29 34" version="1.1" xmlns="http://www.w3.org/2000/svg" xmlns:xlink="http://www.w3.org/1999/xlink">
    <!-- Generator: Sketch 63.1 (92452) - https://sketch.com -->
    <title>codeigniter</title>
    <desc>Created with Sketch.</desc>
    <g id="181023" stroke="none" stroke-width="1" fill="none" fill-rule="evenodd">
        <g id="Software-Development" transform="translate(-333.000000, -5052.000000)" fill="#EE4323" fill-rule="nonzero">
            <g id="Our-Tech-Expertise" transform="translate(120.000000, 4434.000000)">
                <g id="1" transform="translate(204.000000, 354.000000)">
                    <g id="Web">
                        <g id="codeigniter" transform="translate(9.000000, 264.000000)">
                            <path d="M1.46892116,32.2061861 C0.88556755,32.2061861 0.715964549,31.8665317 0.715964549,31.3576106 C0.715964549,31.1880076 0.737263009,30.9966578 0.763493744,30.7951071 C0.891284505,29.9150323 1.2032509,29.4114919 1.95620751,29.4114919 C2.4654649,29.4114919 2.7137601,29.6392733 2.7137601,30.0529118 L2.7137601,30.2545746 L3.21898199,30.2545746 C3.22458685,30.2545746 3.22458685,30.0689417 3.22458685,30.0266811 C3.22458685,29.4222532 2.85858963,28.8489883 1.95699219,28.8489883 C0.731882346,28.8489883 0.228117717,29.5145092 0.042484823,30.819208 C0.0159177965,30.9943038 1.49343415e-16,31.1577414 1.49343415e-16,31.3321646 C1.49343415e-16,32.1011511 0.30255023,32.8006374 1.38428781,32.8006374 C2.20618417,32.8006374 2.69436729,32.39989 2.98055134,31.9066625 L2.49786098,31.5815808 C2.1851099,32.0749204 1.84545552,32.2061861 1.46892116,32.2061861 L1.46892116,32.2061861 Z M4.78363413,29.7772649 C3.80233561,29.7772649 3.37838415,30.2808053 3.23523608,31.2829539 C3.21842948,31.3989495 3.20944144,31.5159439 3.20833276,31.6331455 C3.20833276,32.2799461 3.5106588,32.7946962 4.34836086,32.7946962 C5.32965939,32.7946962 5.75932779,32.269521 5.90247586,31.2829539 C5.91839366,31.1558358 5.92904301,31.0391426 5.92904301,30.9225616 C5.92926708,30.2651117 5.61651601,29.7772649 4.78363413,29.7772649 L4.78363413,29.7772649 Z M5.19200408,31.2832902 C5.08584807,32.0100161 4.85806664,32.2327532 4.42817404,32.2327532 C4.08369947,32.2327532 3.91409647,32.089493 3.91409647,31.6599367 C3.91409647,31.5537807 3.9248578,31.4266625 3.94593207,31.2832902 C4.05208807,30.5621692 4.2641759,30.3394322 4.69900077,30.3394322 C5.0490802,30.3394322 5.22383967,30.4825802 5.22383967,30.9174051 C5.22383967,31.023449 5.21307834,31.1455228 5.19200408,31.2832902 Z M8.39574086,28.901674 L8.23151852,29.8752378 C8.22098139,29.9598712 8.22636205,29.9317348 8.25842184,30.0113238 C8.10462454,29.8947427 7.82864133,29.8176199 7.64300844,29.8176199 C6.76259736,29.8176199 6.26959406,30.2161253 6.11064029,31.3298105 C6.09207964,31.4473714 6.08319417,31.5662568 6.08407326,31.6852706 C6.08407326,32.4969662 6.56127086,32.7995164 7.2028029,32.7995164 C7.47362963,32.7995164 7.73862731,32.8051212 7.94522238,32.6303618 L7.99802014,32.9602637 L8.50727753,32.9602637 L9.10116827,28.901674 L8.39574086,28.901674 L8.39574086,28.901674 Z M7.89197623,32.0787317 C7.65354557,32.2215434 7.42038348,32.2538274 7.27723541,32.2538274 C6.89005183,32.2538274 6.78400792,32.0521646 6.78400792,31.7288764 C6.78400792,31.6068026 6.79992571,31.4639908 6.82133627,31.3097452 C6.94307378,30.4666624 7.21367632,30.3179095 7.56375575,30.3179095 C7.79153717,30.3179095 7.96640874,30.3552379 8.13119156,30.4455882 L7.89197623,32.0787317 L7.89197623,32.0787317 Z M10.6499026,29.7772649 C9.67914122,29.7772649 9.22346627,30.2383205 9.06944478,31.2829539 C9.05330279,31.4104084 9.04265356,31.5324822 9.04265356,31.6490633 C9.04265356,32.3650278 9.40876287,32.7946962 10.2145172,32.7946962 C10.8403557,32.7946962 11.3074645,32.5346308 11.5565444,32.0573211 L11.0208321,31.8398526 C10.867259,32.0730147 10.6604397,32.2321927 10.2944425,32.2321927 C9.90210247,32.2321927 9.7429245,32.1265971 9.7429245,31.7765177 C9.7429245,31.7074659 9.74830517,31.6071389 9.7589544,31.6071389 L11.6731255,31.6071389 C11.7000288,31.3365364 11.731416,31.1452986 11.731416,30.9866811 C11.731416,30.4566858 11.5300895,29.7771528 10.6499026,29.7771528 L10.6499026,29.7772649 Z M11.0156756,31.0662701 L9.84896841,31.0662701 C9.96588575,30.7956676 10.1617195,30.3768726 10.564933,30.3768726 C10.877684,30.3768726 11.0317055,30.5597031 11.0317055,30.8725662 C11.0313692,30.9255882 11.0265491,31.0662701 11.0156756,31.0662701 L11.0156756,31.0662701 Z M13.7722569,29.7133695 L13.8358159,29.1722765 L12.3401036,29.1722765 L12.2767687,29.7133695 L12.6691087,29.7133695 L12.2451573,32.4190586 L11.8522567,32.4190586 L11.7890339,32.9602637 L13.28441,32.9602637 L13.3483054,32.4190586 L12.9556291,32.4190586 L13.3796926,29.7133695 L13.7722569,29.7133695 Z M16.8112108,30.525065 L17.0023365,29.9839721 L16.4879226,29.9839721 L16.1169931,30.0605344 C15.9100618,29.9282598 15.6289221,29.8289417 15.3640365,29.8289417 C14.6053629,29.8289417 13.9586744,30.1952752 13.9586744,31.028045 C13.9586744,31.2616555 14.0434199,31.4502029 14.143971,31.5776574 C13.9852415,31.6622907 13.8472499,31.8040936 13.8472499,31.9953314 C13.8472499,32.0800768 13.8788613,32.16684 13.9427566,32.2462048 C13.6242886,32.4374426 13.4286791,32.7543412 13.4286791,33.1252707 C13.4286791,33.8415716 14.176255,33.99436 14.7489594,33.99436 C15.4700804,33.99436 16.3294172,33.8295772 16.3294172,32.9120619 C16.3294172,32.5993109 16.1332472,32.3549391 15.5658114,32.2488951 L14.5423643,32.0576574 C14.4257833,32.0362468 14.3992163,31.9991427 14.3992163,31.9461207 C14.3992163,31.8665317 14.447418,31.8243832 14.5265586,31.8243832 L14.5956105,31.8349203 C14.73349,31.8666438 14.8926679,31.8827858 15.0568903,31.8827858 C15.7942654,31.8827858 16.4517152,31.5644299 16.4517152,30.7371529 C16.4517152,30.6203476 16.430641,30.5413191 16.377619,30.4138647 C16.467633,30.4564616 16.5845504,30.5254013 16.6318554,30.5254013 L16.8112108,30.5254013 L16.8112108,30.525065 L16.8112108,30.525065 Z M15.3531631,32.7202637 C15.5544896,32.757592 15.6233172,32.8316883 15.6233172,32.9642992 C15.6233172,33.3939676 15.1619253,33.4469896 14.8279879,33.4469896 C14.3188426,33.4469896 14.1280532,33.3252521 14.1280532,33.0544253 C14.1280532,32.8156584 14.1967688,32.7045701 14.356171,32.5346308 L15.3531631,32.7202637 Z M15.1353583,31.3311557 C14.8277637,31.3311557 14.6580486,31.2199553 14.6580486,30.9545093 C14.6580486,30.5621692 14.8861663,30.3340515 15.283887,30.3340515 C15.6021309,30.3340515 15.7560403,30.4666624 15.7560403,30.7261673 C15.7560403,31.1187316 15.533079,31.3311557 15.1353583,31.3311557 L15.1353583,31.3311557 Z M18.6952277,29.7772649 C18.3981703,29.7772649 18.1332847,29.9229912 17.8042795,30.1826082 L17.7566382,29.9839721 L17.1730604,29.9839721 L16.7648026,32.9601516 L17.4701179,32.9601516 L17.7778246,30.7031874 C17.984756,30.5759572 18.2391044,30.391221 18.4565729,30.391221 C18.7215706,30.391221 18.8173016,30.5191239 18.8173016,30.7629352 C18.8173016,30.8213378 18.8116967,30.9943038 18.8010475,31.0578628 L18.5415425,32.9601516 L19.24697,32.9601516 L19.5064749,31.0423934 C19.5172362,30.9527157 19.5277737,30.8048596 19.5277737,30.7202262 C19.5281096,30.215789 19.2891185,29.7772649 18.6952277,29.7772649 L18.6952277,29.7772649 Z M20.8676707,32.2145934 L20.8730513,32.1417303 L21.1804217,29.9839721 L20.0083339,29.9839721 L19.9344618,30.525065 L20.4485394,30.525065 C20.4060546,30.525065 20.3795996,30.5724821 20.3744432,30.6151912 L20.1622433,32.0522767 C20.1517061,32.1214407 20.1465497,32.2653734 20.1465497,32.3233277 C20.1465497,32.6944813 20.3478762,32.9602637 20.7612905,32.9602637 L21.1220191,32.9602637 L21.2016081,32.4190586 L20.9737146,32.4190586 C20.8939014,32.4190586 20.8676707,32.2781525 20.8676707,32.2145934 L20.8676707,32.2145934 Z M21.3235698,28.901674 L20.6341723,28.901674 C20.5916875,28.901674 20.5916875,28.7455227 20.586531,28.7985446 L20.4908,29.5610295 C20.4853073,29.6090071 20.4853073,29.7134816 20.5277921,29.7134816 L21.2175259,29.7134816 C21.2600107,29.7134816 21.2600107,29.5280729 21.2651672,29.4798711 L21.3608982,28.8913611 C21.3662788,28.8383391 21.3662788,28.901674 21.3235698,28.901674 Z M22.7618885,32.2326411 C22.587129,32.2326411 22.5021593,32.1583206 22.5021593,31.999479 L22.50754,31.9886055 L22.7302771,30.525065 L23.5362556,30.525065 L23.7800669,29.9839721 L22.8043733,29.9839721 L22.9685956,28.793164 L22.2265124,29.0304736 L22.0936773,29.9839721 L21.6642331,29.9839721 L21.5901369,30.525065 L22.0885208,30.525065 C22.0408795,30.7956676 21.993014,30.6201234 21.9878576,30.6733696 L21.796844,31.9566579 C21.7863069,32.0151726 21.7863069,32.0575453 21.7863069,32.1103431 C21.7863069,32.6142198 22.1574606,32.8027672 22.6033831,32.8027672 C23.0167974,32.8027672 23.350959,32.6820386 23.6110244,32.4642338 L23.2820193,32.059563 C23.1172364,32.1601142 23.0060361,32.2326411 22.7618885,32.2326411 L22.7618885,32.2326411 Z M25.3498755,29.7772649 C24.3794504,29.7772649 23.9234392,30.2383205 23.7695298,31.2829539 C23.753612,31.4104084 23.7429628,31.5324822 23.7429628,31.6490633 C23.7429628,32.3650278 24.1088479,32.7946962 24.9148265,32.7946962 C25.5406649,32.7946962 26.0077738,32.5346308 26.2566295,32.0573211 L25.7211413,31.8398526 C25.5675682,32.0730147 25.3605248,32.2321927 24.9944155,32.2321927 C24.6022996,32.2321927 24.4428974,32.1265971 24.4428974,31.7765177 C24.4428974,31.7074659 24.4486144,31.6071389 24.4592636,31.6071389 L26.3735468,31.6071389 C26.4000017,31.3365364 26.4318373,31.1452986 26.4318373,30.9866811 C26.4318373,30.4566858 26.2303987,29.7771528 25.3498755,29.7771528 L25.3498755,29.7772649 Z M25.7159849,31.0662701 L24.5492776,31.0662701 C24.6658587,30.7956676 24.8618045,30.3768726 25.2652422,30.3768726 C25.5779933,30.3768726 25.7320148,30.5597031 25.7320148,30.8725662 C25.7316785,30.9255882 25.726522,31.0662701 25.7159849,31.0662701 L25.7159849,31.0662701 Z M28.3835609,29.7771528 C28.1289883,29.7771528 27.8903334,29.9231033 27.6515665,30.1506605 L27.6091938,29.9839721 L27.0260644,29.9839721 L26.6175823,32.9601516 L27.3282783,32.9601516 L27.6410294,30.655434 C27.8267744,30.5443458 28.0388622,30.4493995 28.2404129,30.4493995 C28.3678673,30.4493995 28.4896048,30.4291099 28.6061859,30.4449156 L28.6968725,29.8300627 C28.5902681,29.8088763 28.4842242,29.7772649 28.3835609,29.7772649 L28.3835609,29.7771528 Z M10.373471,26.7699223 C8.76823971,26.0760409 7.26613779,24.3125284 7.26255068,22.5081005 C7.25817889,20.5407954 8.50492349,18.8705477 10.0555635,17.7728923 C9.8691459,18.4771988 9.76747378,19.1214211 10.2293141,19.7514072 C10.6586462,20.3371148 11.4105939,20.6217295 12.1206173,20.4672596 C13.7796553,20.1040648 13.8557692,18.2802441 12.8722288,17.2176751 C11.8997859,16.1654191 10.9590666,14.9768529 11.3292114,13.4508743 C11.514508,12.6859233 11.9841951,11.9693983 12.5792068,11.4572263 C12.1218504,12.6591321 13.4215048,13.8444474 14.277815,14.4348632 C15.7632145,15.459207 17.3929951,16.23335 18.7587868,17.4341347 C20.195424,18.6961245 21.2563115,20.4024675 21.0420939,22.3815428 C20.8099406,24.526634 19.1053913,26.0185351 17.1934621,26.7717159 C21.2336679,25.879983 25.4082782,22.7442892 25.4938083,18.2635416 C25.5646537,14.5772265 23.0358539,11.7402717 19.9032988,10.1160959 L19.739637,10.0267545 C19.8256155,10.2353673 19.8537519,10.4128171 19.8505011,10.5716588 C19.8785254,10.4545173 19.8975819,10.3341249 19.9029625,10.2099213 C19.902201,10.3574751 19.882919,10.5043498 19.8455688,10.6471002 L19.8505011,10.5716588 C19.8039861,10.7673679 19.7256329,10.9541053 19.618572,11.1244099 L19.6645319,11.074975 C19.0395902,12.1115375 17.3477078,12.3366285 16.5119114,11.2632983 C15.1683149,9.53677783 16.5400478,7.67529242 16.7319581,5.84698777 C16.9721823,3.55560976 15.5352089,1.33115375 13.7535366,0 C14.7348352,1.58740786 13.4420186,3.68754812 12.4076981,4.86165375 C11.4047649,5.9997762 10.1850357,6.95002381 9.07785206,7.98412009 C7.88850122,9.09477873 6.7451102,10.2647368 5.76751089,11.5683146 C3.81231225,14.1774881 2.6153388,17.4590203 3.4949652,20.7140976 C4.37403111,23.9669329 7.19170528,26.0375916 10.3735831,26.7698102 L10.373471,26.7699223 Z" id="Shape"></path>
                        </g>
                    </g>
                </g>
            </g>
        </g>
    </g>
</svg>