<?xml version="1.0" encoding="UTF-8"?>
<svg width="27px" height="31px" viewBox="0 0 27 31" version="1.1" xmlns="http://www.w3.org/2000/svg" xmlns:xlink="http://www.w3.org/1999/xlink">
    <!-- Generator: Sketch 63.1 (92452) - https://sketch.com -->
    <title>amazon-database</title>
    <desc>Created with Sketch.</desc>
    <g id="181023" stroke="none" stroke-width="1" fill="none" fill-rule="evenodd">
        <g id="Software-Development" transform="translate(-654.000000, -5598.000000)">
            <g id="Our-Tech-Expertise" transform="translate(120.000000, 4434.000000)">
                <g id="1" transform="translate(204.000000, 354.000000)">
                    <g id="Databases" transform="translate(323.000000, 491.000000)">
                        <g id="amazon-database" transform="translate(7.000000, 319.000000)">
                            <path d="M26.1935996,4.16159993 C26.1935996,2.08079997 20.5631997,0.244799996 13.5863998,0.244799996 C6.60959989,0.244799996 0.734399988,2.20319996 0.734399988,4.28399993 C0.734399988,4.52879993 0.856799986,4.89599992 0.979199984,5.01839992 L0.367199994,4.40639993 L0.367199994,26.4383996 L0.856799986,26.4383996 C8.32319987,13.8311998 25.8263996,5.50799991 25.8263996,5.50799991 C25.5815996,5.63039991 25.3367996,5.63039991 25.2143996,5.75279991 C25.7039996,5.26319992 26.1935996,4.65119993 26.1935996,4.16159993 Z" id="Path" fill="#A0CEC7" fill-rule="nonzero"></path>
                            <path d="M26.6831996,4.40639993 C26.8055996,1.83599997 20.5631997,0 13.3415998,0 C6.1199999,0 0,1.71359997 0,4.40639993 L0,26.4383996 C0,26.4383996 0,23.9903996 0,26.4383996 C0,28.8863995 6.3647999,30.5999995 13.3415998,30.5999995 C20.3183997,30.5999995 26.6831996,29.0087995 26.6831996,26.4383996 L26.6831996,4.40639993 Z M13.3415998,0.734399988 C20.8079997,0.734399988 25.8263996,2.57039996 25.8263996,4.28399993 C25.8263996,6.1199999 20.8079997,7.83359987 13.3415998,7.83359987 C5.87519991,7.83359987 0.856799986,6.1199999 0.856799986,4.40639993 C0.856799986,2.69279996 5.87519991,0.734399988 13.3415998,0.734399988 Z M25.8263996,26.4383996 C25.4591996,28.1519996 20.4407997,29.7431995 13.3415998,29.7431995 C6.2423999,29.7431995 1.22399998,28.0295996 0.856799986,26.4383996 L0.856799986,19.8287997 C2.32559996,21.6647997 7.22159988,22.8887996 13.3415998,22.8887996 C19.3391997,22.8887996 24.3575996,21.6647997 25.8263996,19.9511997 L25.8263996,26.4383996 L25.8263996,26.4383996 Z M25.8263996,18.9719997 C25.3367996,20.6855997 20.4407997,22.2767996 13.3415998,22.2767996 C6.2423999,22.2767996 1.22399998,20.5631997 0.856799986,18.9719997 L0.856799986,19.0943997 L0.856799986,12.9743998 C2.32559996,14.8103998 7.22159988,15.9119997 13.3415998,15.9119997 C19.3391997,15.9119997 24.3575996,14.6879998 25.8263996,12.9743998 L25.8263996,18.9719997 L25.8263996,18.9719997 Z M25.8263996,11.9951998 C25.3367996,13.7087998 20.4407997,15.2999998 13.3415998,15.2999998 C6.2423999,15.2999998 1.22399998,13.5863998 0.856799986,11.9951998 L0.856799986,12.2399998 L0.856799986,5.63039991 C2.32559996,7.22159988 7.34399988,8.69039986 13.3415998,8.69039986 C19.3391997,8.69039986 24.3575996,7.46639988 25.8263996,5.75279991 L25.8263996,11.9951998 L25.8263996,11.9951998 Z" id="Shape" fill="#222222" fill-rule="nonzero"></path>
                            <circle id="Oval" stroke="#222222" stroke-width="0.60832799" cx="22.6439996" cy="10.6487998" r="1.10159998"></circle>
                            <circle id="Oval" stroke="#222222" stroke-width="0.60832799" cx="22.6439996" cy="17.9927997" r="1.10159998"></circle>
                            <circle id="Oval" stroke="#222222" stroke-width="0.60832799" cx="22.6439996" cy="25.3367996" r="1.10159998"></circle>
                        </g>
                    </g>
                </g>
            </g>
        </g>
    </g>
</svg>