<?xml version="1.0" encoding="UTF-8"?>
<svg width="27px" height="30px" viewBox="0 0 27 30" version="1.1" xmlns="http://www.w3.org/2000/svg" xmlns:xlink="http://www.w3.org/1999/xlink">
    <!-- Generator: Sketch 63.1 (92452) - https://sketch.com -->
    <title>shopify</title>
    <desc>Created with Sketch.</desc>
    <g id="181023" stroke="none" stroke-width="1" fill="none" fill-rule="evenodd">
        <g id="Software-Development-V2" transform="translate(-1335.000000, -5694.000000)" fill-rule="nonzero">
            <g id="Our-Tech-Expertise" transform="translate(120.000000, 4434.000000)">
                <g id="1" transform="translate(204.000000, 354.000000)">
                    <g id="Digital-Experience-P" transform="translate(1007.000000, 483.000000)">
                        <g id="shopify" transform="translate(4.000000, 423.000000)">
                            <path d="M23.0943938,5.84540478 C23.0736498,5.6947268 22.9416518,5.61133789 22.832565,5.60215272 C22.7236847,5.59307076 20.4193436,5.42226798 20.4193436,5.42226798 C20.4193436,5.42226798 18.8189577,3.83344089 18.6433043,3.65758111 C18.4675477,3.48182453 18.1242909,3.53528425 17.9910544,3.57450181 C17.9714456,3.58028124 17.6413989,3.68214368 17.0954492,3.85108879 C16.560852,2.31272851 15.6173601,0.899038771 13.9575286,0.899038771 C13.911706,0.899038771 13.8645417,0.900896444 13.8173775,0.903579751 C13.3453219,0.279298162 12.7605675,0.00807779229 12.2554866,0.00807779229 C8.38894511,0.00807779229 6.54169496,4.84164172 5.96251356,7.29789926 C4.4600683,7.76345294 3.39273152,8.09442849 3.25639891,8.13725819 C2.4177624,8.40032543 2.39123895,8.42674568 2.28112018,9.21697946 C2.19824729,9.81525362 0.00392175573,26.7850003 0.00392175573,26.7850003 L17.1025703,29.9886619 L26.3672022,27.9844383 C26.3672022,27.9844383 23.1149314,5.99608276 23.094497,5.84540478 L23.0943938,5.84540478 Z M16.1504093,4.1433628 L14.7035911,4.59116538 C14.7041071,4.48919973 14.7046231,4.38888535 14.7046231,4.27917939 C14.7046231,3.32309663 14.5719026,2.55329726 14.3589926,1.94305143 C15.2142449,2.05038369 15.7838283,3.02349513 16.1504093,4.1433628 Z M13.2980544,2.13263735 C13.5358367,2.72843461 13.6904364,3.58348056 13.6904364,4.73730238 C13.6904364,4.79633512 13.6899204,4.85031087 13.6894044,4.90490584 C12.7484926,5.19635421 11.7260496,5.51277797 10.7013361,5.83023378 C11.276699,3.60969441 12.3551818,2.53719742 13.2980544,2.13263735 Z M12.1492896,1.04517577 C12.3161707,1.04517577 12.4842901,1.10183482 12.6451853,1.21257282 C11.4060137,1.79567597 10.077777,3.26427029 9.5168627,6.19702114 L7.15493371,6.92853179 C7.811931,4.69158297 9.37196414,1.04517577 12.1491864,1.04517577 L12.1492896,1.04517577 Z" id="Shape" fill="#95BF46"></path>
                            <path d="M22.832565,5.60215272 C22.7236847,5.59307076 20.4193436,5.42226798 20.4193436,5.42226798 C20.4193436,5.42226798 18.8189577,3.83344089 18.6433043,3.65758111 C18.5775633,3.59214971 18.488911,3.55860838 18.3962337,3.5441598 L17.1033959,29.9884555 L26.3672022,27.9844383 C26.3672022,27.9844383 23.1148282,5.99608276 23.0943938,5.84540478 C23.0736498,5.6947268 22.9416518,5.61133789 22.832565,5.60215272" id="Path" fill="#5E8E3E"></path>
                            <path d="M13.9575286,10.7212824 L12.8151625,14.1193805 C12.8151625,14.1193805 11.8142891,13.5851961 10.5873988,13.5851961 C8.78875778,13.5851961 8.69824779,14.7139393 8.69824779,14.9983698 C8.69824779,16.5503531 12.7438484,17.1450151 12.7438484,20.7802762 C12.7438484,23.6403714 10.92983,25.4820485 8.48389288,25.4820485 C5.54876833,25.4820485 4.04776793,23.655336 4.04776793,23.655336 L4.83366714,21.0587209 C4.83366714,21.0587209 6.3765684,22.3833455 7.6784881,22.3833455 C8.52919948,22.3833455 8.87524282,21.7135509 8.87524282,21.224157 C8.87524282,19.1997055 5.55619903,19.1094019 5.55619903,15.7828242 C5.55619903,12.9830002 7.56578922,10.273583 11.6223295,10.273583 C13.1853556,10.273583 13.9575286,10.7212824 13.9575286,10.7212824" id="Path" fill="#FFFFFF"></path>
                        </g>
                    </g>
                </g>
            </g>
        </g>
    </g>
</svg>