<svg xmlns="http://www.w3.org/2000/svg" width="31" height="30" viewBox="0 0 31 30">
    <g fill="#3E3D3A" fill-rule="evenodd">
        <path d="M2.402 14.886c0 5.054 2.938 9.422 7.197 11.492L3.508 9.69a12.724 12.724 0 0 0-1.106 5.197M23.792 14.241c0-1.578-.567-2.67-1.053-3.521-.647-1.052-1.254-1.943-1.254-2.995 0-1.173.89-2.266 2.144-2.266.057 0 .11.007.166.01a12.72 12.72 0 0 0-8.623-3.352c-4.461 0-8.386 2.289-10.67 5.755.3.01.583.016.823.016 1.335 0 3.403-.163 3.403-.163.688-.04.769.97.081 1.052 0 0-.692.082-1.461.122l4.65 13.832 2.795-8.381-1.99-5.45c-.687-.041-1.339-.123-1.339-.123-.688-.04-.607-1.092.08-1.052 0 0 2.11.163 3.364.163 1.335 0 3.403-.163 3.403-.163.689-.04.77.97.082 1.052 0 0-.693.082-1.461.122l4.614 13.727 1.274-4.256c.552-1.767.972-3.035.972-4.129"/>
        <path d="M15.396 16.003l-3.831 11.133a12.773 12.773 0 0 0 7.847-.203 1.155 1.155 0 0 1-.09-.176l-3.926-10.754M26.376 8.76c.055.406.086.843.086 1.313 0 1.295-.242 2.752-.97 4.573l-3.9 11.278c3.796-2.214 6.349-6.328 6.349-11.038a12.7 12.7 0 0 0-1.565-6.126"/>
        <path d="M15.172 29.09C7.34 29.09.969 22.717.969 14.885.97 7.055 7.341.684 15.172.684c7.83 0 14.202 6.37 14.202 14.202s-6.371 14.203-14.202 14.203zm0-29.089C6.964.001.287 6.678.287 14.886c0 8.209 6.677 14.886 14.885 14.886 8.207 0 14.886-6.677 14.886-14.886C30.058 6.678 23.378 0 15.172 0z"/>
    </g>
</svg>
