<?xml version="1.0" encoding="UTF-8"?>
<svg width="33px" height="32px" viewBox="0 0 33 32" version="1.1" xmlns="http://www.w3.org/2000/svg" xmlns:xlink="http://www.w3.org/1999/xlink">
    <!-- Generator: Sketch 63.1 (92452) - https://sketch.com -->
    <title>webrtc-seeklogo.com</title>
    <desc>Created with Sketch.</desc>
    <g id="181023" stroke="none" stroke-width="1" fill="none" fill-rule="evenodd">
        <g id="Software-Development" transform="translate(-962.000000, -4892.000000)" fill-rule="nonzero">
            <g id="Our-Tech-Expertise" transform="translate(120.000000, 4434.000000)">
                <g id="1" transform="translate(204.000000, 354.000000)">
                    <g id="Video" transform="translate(637.000000, 0.000000)">
                        <g id="webrtc-seeklogo.com" transform="translate(1.000000, 104.000000)">
                            <path d="M18.2588373,24.5573418 C18.2588373,20.4698031 14.9455112,17.1559343 10.8579723,17.1559343 C6.7698909,17.1559343 3.45656469,20.4698031 3.45656469,24.5573418 C3.45656469,28.6448807 6.7698909,31.9587494 10.8579723,31.9587494 C14.9455112,31.9587494 18.2588373,28.6448807 18.2588373,24.5573418" id="Path" fill="#FF6600" transform="translate(10.857701, 24.557342) scale(-1, 1) rotate(-180.000000) translate(-10.857701, -24.557342) "></path>
                            <path d="M32.8969899,14.1949373 C32.8969899,10.107941 29.5836638,6.7935297 25.4961249,6.7935297 C21.4080436,6.7935297 18.0947173,10.107941 18.0947173,14.1949373 C18.0947173,18.2824762 21.4080436,21.5968875 25.4961249,21.5968875 C29.5836638,21.5968875 32.8969899,18.2824762 32.8969899,14.1949373" id="Path" fill="#FFCC00" transform="translate(25.495854, 14.195209) scale(-1, 1) rotate(-180.000000) translate(-25.495854, -14.195209) "></path>
                            <path d="M14.8048833,14.0307086 C14.8048833,9.94371239 11.4915571,6.62930108 7.4034757,6.62930108 C3.3164794,6.62930108 0.00261063802,9.94371239 0.00261063802,14.0307086 C0.00261063802,18.1182475 3.3164794,21.4326588 7.4034757,21.4326588 C11.4915571,21.4326588 14.8048833,18.1182475 14.8048833,14.0307086" id="Path" fill="#0089CC" transform="translate(7.403747, 14.030980) scale(-1, 1) rotate(-180.000000) translate(-7.403747, -14.030980) "></path>
                            <path d="M29.6078071,24.5573418 C29.6078071,20.4698031 26.2944808,17.1559343 22.2058569,17.1559343 C18.1188606,17.1559343 14.8049919,20.4698031 14.8049919,24.5573418 C14.8049919,28.6448807 18.1188606,31.9587494 22.2058569,31.9587494 C26.2944808,31.9587494 29.6078071,28.6448807 29.6078071,24.5573418" id="Path" fill="#009939" transform="translate(22.206399, 24.557342) scale(-1, 1) rotate(-180.000000) translate(-22.206399, -24.557342) "></path>
                            <path d="M23.8511809,7.45180028 C23.8511809,3.36426144 20.537312,0.0503926747 16.4497732,0.0503926747 C12.3622343,0.0503926747 9.04836557,3.36426144 9.04836557,7.45180028 C9.04836557,11.5393391 12.3622343,14.8532079 16.4497732,14.8532079 C20.537312,14.8532079 23.8511809,11.5393391 23.8511809,7.45180028" id="Path" fill="#BF0000" transform="translate(16.449773, 7.451800) scale(-1, 1) rotate(-180.000000) translate(-16.449773, -7.451800) "></path>
                            <path d="M18.0946088,7.45109493 C18.0946088,7.29538433 18.1081725,7.142929 18.1179382,6.98938859 C21.4008819,7.7467823 23.851018,10.6819542 23.851018,14.1949372 C23.851018,14.3506478 23.8374544,14.5036457 23.8276886,14.6571861 C20.5447449,13.8992499 18.0946088,10.9640779 18.0946088,7.45109493" id="Path" fill="#FC0007" transform="translate(20.972813, 10.823287) scale(-1, 1) rotate(-180.000000) translate(-20.972813, -10.823287) "></path>
                            <path d="M19.0710824,20.8926092 C20.3466073,18.6627465 22.7435738,17.1560973 25.4964504,17.1560973 C26.6184348,17.1560973 27.6780264,17.4132639 28.6312792,17.8603215 C27.3562969,20.0901841 24.9593303,21.5968333 22.2059111,21.5968333 C21.0839267,21.5968333 20.0243352,21.3396668 19.0710824,20.8926092" id="Path" fill="#1CD306" transform="translate(23.851181, 19.376465) scale(-1, 1) rotate(-180.000000) translate(-23.851181, -19.376465) "></path>
                            <path d="M14.8048833,24.5573418 C14.8048833,22.7490372 15.454853,21.094273 16.5323487,19.8089825 C17.6087591,21.094273 18.2587289,22.7490372 18.2587289,24.5573418 C18.2587289,26.3656465 17.6087591,28.0204107 16.5323487,29.3057013 C15.454853,28.0204107 14.8048833,26.3656465 14.8048833,24.5573418" id="Path" fill="#0F7504" transform="translate(16.531806, 24.557342) scale(-1, 1) rotate(-180.000000) translate(-16.531806, -24.557342) "></path>
                            <path d="M4.4731867,17.7622833 C5.37218483,17.3738207 6.36178808,17.1562599 7.4034757,17.1562599 C10.129225,17.1562599 12.5039473,18.6336116 13.7886954,20.8271235 C12.8896972,21.2155863 11.8995514,21.4326045 10.8584063,21.4326045 C8.13265704,21.4326045 5.75739223,19.9552527 4.4731867,17.7622833" id="Path" fill="#0C5E87" transform="translate(9.130941, 19.294432) scale(-1, 1) rotate(-180.000000) translate(-9.130941, -19.294432) "></path>
                            <path d="M9.08010449,14.655233 C9.06274303,14.4490656 9.0480943,14.2418132 9.0480943,14.030763 C9.0480943,10.5204927 11.4944326,7.58803353 14.7735784,6.82738455 C14.7903973,7.03355188 14.8050461,7.24080432 14.8050461,7.45131203 C14.8050461,10.9615823 12.3592503,13.8951266 9.08010449,14.655233" id="Path" fill="#6B0001" transform="translate(11.926570, 10.741309) scale(-1, 1) rotate(-180.000000) translate(-11.926570, -10.741309) "></path>
                            <path d="M9.7709821,14.3298141 L8.61318972,14.3298141 C7.59103373,14.3298141 6.75985382,15.1582813 6.75985382,16.1777246 L6.75985382,26.6575361 C6.75985382,27.6769794 7.59103373,28.5059891 8.61318972,28.5059891 L23.1311685,28.5059891 C24.1533245,28.5059891 24.9839618,27.6769794 24.9839618,26.6575361 L24.9839618,16.1777246 C24.9839618,15.1582813 24.1533245,14.3298141 23.1311685,14.3298141 L18.1853224,14.3298141 L8.26216269,9.46534991 L9.7709821,14.3298141 L9.7709821,14.3298141 Z" id="Path" fill="#FFFFFF" transform="translate(15.871908, 18.985670) scale(-1, 1) rotate(-180.000000) translate(-15.871908, -18.985670) "></path>
                        </g>
                    </g>
                </g>
            </g>
        </g>
    </g>
</svg>