<svg xmlns="http://www.w3.org/2000/svg" xmlns:xlink="http://www.w3.org/1999/xlink" width="27" height="30" viewBox="0 0 27 30">
    <defs>
        <path id="a" d="M0 0h26.054v29.369H0z"/>
        <path id="c" d="M0 0h26.054v29.369H0z"/>
    </defs>
    <g fill="none" fill-rule="evenodd">
        <g>
            <mask id="b" fill="#fff">
                <use xlink:href="#a"/>
            </mask>
            <path fill="#8D4482" fill-rule="nonzero" d="M26.052 8.636c0-.494-.105-.93-.318-1.305a2.491 2.491 0 0 0-.943-.921c-3.468-2.006-6.94-4.006-10.407-6.015-.935-.541-1.841-.521-2.77.028-1.38.817-8.292 4.789-10.351 5.986C.414 6.9.002 7.655 0 8.635L0 20.739c0 .483.101.91.305 1.28.209.379.527.696.956.946 2.06 1.197 8.973 5.169 10.353 5.986.929.549 1.835.569 2.77.027 3.467-2.008 6.94-4.008 10.409-6.014.43-.25.747-.567.956-.946.204-.37.305-.797.305-1.28 0 0 0-8.068-.002-12.102" mask="url(#b)"/>
        </g>
        <g>
            <mask id="d" fill="#fff">
                <use xlink:href="#c"/>
            </mask>
            <path fill="#5B2863" fill-rule="nonzero" d="M13.067 14.647L.305 22.02c.209.379.527.696.956.946 2.06 1.197 8.973 5.169 10.353 5.986.929.549 1.835.569 2.77.027 3.467-2.008 6.94-4.008 10.409-6.014.43-.25.747-.567.956-.946l-12.682-7.37" mask="url(#d)"/>
        </g>
        <path fill="#5B2863" fill-rule="nonzero" d="M9.241 16.67c.72 1.28 2.072 2.142 3.624 2.142 1.561 0 2.921-.874 3.637-2.167l-3.599-2.123-3.662 2.148"/>
        <path fill="#732E71" fill-rule="nonzero" d="M26.072 8.58c0-.499-.105-.94-.316-1.32l-12.554 7.4 12.57 7.453c.201-.373.301-.806.301-1.295L26.072 8.58"/>
        <path fill="#FFFFFE" fill-rule="nonzero" d="M16.701 16.822a4.3 4.3 0 0 1-3.755 2.22 4.3 4.3 0 0 1-3.742-2.195 4.37 4.37 0 0 1-.568-2.16c0-2.405 1.93-4.355 4.31-4.355a4.3 4.3 0 0 1 3.727 2.17l3.767-2.192c-1.497-2.612-4.293-4.37-7.494-4.37-4.78 0-8.655 3.917-8.655 8.747 0 1.584.417 3.07 1.146 4.352 1.493 2.626 4.297 4.394 7.509 4.394 3.217 0 6.025-1.775 7.517-4.409L16.7 16.822M20.463 16.832h.99v-4.29h-.99zM22.773 16.832h.99v-4.29h-.99z"/>
        <path fill="#FFFFFE" fill-rule="nonzero" d="M19.803 14.192h4.29v-.99h-4.29zM19.803 16.172h4.29v-.99h-4.29z"/>
    </g>
</svg>
