<svg xmlns="http://www.w3.org/2000/svg" width="30" height="30" viewBox="0 0 30 30">
    <defs>
        <linearGradient id="a" x1="12.959%" x2="79.639%" y1="12.039%" y2="78.201%">
            <stop offset="0%" stop-color="#387EB8"/>
            <stop offset="100%" stop-color="#366994"/>
        </linearGradient>
        <linearGradient id="b" x1="19.128%" x2="90.742%" y1="20.579%" y2="88.429%">
            <stop offset="0%" stop-color="#FFE052"/>
            <stop offset="100%" stop-color="#FFC331"/>
        </linearGradient>
    </defs>
    <g fill="none" fill-rule="nonzero">
        <path fill="url(#a)" d="M14.91 0C7.285 0 7.76 3.25 7.76 3.25l.01 3.367h7.276v1.011H4.879S0 7.084 0 14.646c0 7.563 4.259 7.294 4.259 7.294H6.8v-3.509s-.137-4.186 4.191-4.186h7.217s4.055.065 4.055-3.851V3.919S22.879 0 14.91 0zm-4.013 2.264c.348 0 .681.135.927.377a1.274 1.274 0 0 1 0 1.82 1.32 1.32 0 0 1-.927.377c-.347 0-.68-.136-.925-.377a1.274 1.274 0 0 1 0-1.82 1.32 1.32 0 0 1 .925-.377z"/>
        <path fill="url(#b)" d="M15.01 29.587c7.625 0 7.15-3.25 7.15-3.25l-.01-3.366h-7.275V21.96H25.04s4.879.543 4.879-7.018c0-7.563-4.259-7.295-4.259-7.295H23.12v3.51s.137 4.185-4.191 4.185h-7.217s-4.055-.064-4.055 3.852v6.475s-.616 3.918 7.353 3.918zm4.013-2.263a1.32 1.32 0 0 1-.927-.377 1.274 1.274 0 0 1 0-1.82 1.32 1.32 0 0 1 .927-.377c.347 0 .68.135.925.377a1.274 1.274 0 0 1 0 1.82 1.32 1.32 0 0 1-.925.376z"/>
    </g>
</svg>
